<svg xmlns="http://www.w3.org/2000/svg" viewBox="0 0 2209 990" width="1920" height="860"><defs><clipPath clipPathUnits="userSpaceOnUse" id="cp1"><path d="M0 0L2209 0L2209 990L0 990Z"></path></clipPath><linearGradient id="grd1" gradientUnits="userSpaceOnUse" x1="1598.982" y1="269.76" x2="848.302" y2="703.165"><stop offset="0" stop-color="#00caf7"></stop><stop offset="1" stop-color="#00d394"></stop></linearGradient><linearGradient id="grd2" gradientUnits="userSpaceOnUse" x1="1592.649" y1="291.871" x2="847.01" y2="714.385"><stop offset="0" stop-color="#0085fe"></stop><stop offset="1" stop-color="#000000"></stop></linearGradient><linearGradient id="grd3" gradientUnits="userSpaceOnUse" x1="1576.391" y1="827.063" x2="2252.364" y2="154.739"><stop offset="0" stop-color="#0085fe"></stop><stop offset="1" stop-color="#000000"></stop></linearGradient><linearGradient id="grd4" gradientUnits="userSpaceOnUse" x1="1192.732" y1="269.76" x2="1943.412" y2="703.165"><stop offset="0" stop-color="#0097fd"></stop><stop offset="1" stop-color="#00ddff"></stop></linearGradient><linearGradient id="grd5" gradientUnits="userSpaceOnUse" x1="1209.986" y1="785.008" x2="685.196" y2="482.02"><stop offset="0" stop-color="#00ddff"></stop><stop offset="1" stop-color="#00b672"></stop></linearGradient></defs><style>
		tspan { white-space:pre }
		.shp0 { fill: url(#grd1) } 
		.shp1 { opacity: 0.302;fill: url(#grd2) } 
		.shp2 { fill: #0093f9 } 
		.shp3 { opacity: 0.451;fill: url(#grd3) } 
		.shp4 { fill: url(#grd4) } 
		.shp5 { fill: url(#grd5) } 
		.shp6 { mix-blend-mode: multiply;fill: #00c9f2 } 
	</style><g id="Page 1" clip-path="url(#cp1)"><path id="Path 1" class="shp0" d="M1284.11 71.67L938.86 813.84C910.16 875.53 937.15 949.48 998.84 978.18L998.84 978.18C1060.53 1006.87 1134.48 979.88 1163.18 918.19L1508.43 176.02C1537.12 114.34 1510.13 40.38 1448.44 11.69C1431.69 3.9 1414.04 0.21 1396.63 0.21C1349.93 0.21 1305.01 26.74 1284.11 71.67Z"></path><path id="Path 2" class="shp1" d="M1441.77 28.52L1439.87 27.64C1378.7 -0.82 1305.38 25.95 1276.93 87.11L938.41 814.79C909.96 875.96 936.72 949.28 997.89 977.73L999.79 978.62C1060.96 1007.07 1134.28 980.31 1162.73 919.14L1501.25 191.46C1529.7 130.3 1502.94 56.97 1441.77 28.52Z"></path><path id="Path 3" class="shp2" d="M2137.3 11.69L2137.3 11.69C2075.72 -16.96 2001.9 9.99 1973.26 71.57L1628.61 812.42C1599.97 874 1626.92 947.82 1688.49 976.47C1750.07 1005.12 1823.89 978.17 1852.54 916.59L2197.18 175.73C2225.83 114.15 2198.88 40.33 2137.3 11.69Z"></path><path id="Path 4" class="shp3" d="M1690.99 969.9L1691.91 970.33C1753.35 998.91 1826.99 972.03 1855.57 910.59L2197.5 175.56C2226.08 114.13 2199.2 40.48 2137.77 11.9L2136.84 11.47C2075.41 -17.1 2001.76 9.78 1973.18 71.21L1631.25 806.24C1602.67 867.67 1629.55 941.32 1690.99 969.9Z"></path><path id="Path 5" class="shp4" d="M1343.27 11.69C1281.58 40.38 1254.59 114.34 1283.29 176.02L1628.54 918.19C1657.23 979.88 1731.19 1006.87 1792.87 978.18C1854.56 949.48 1881.55 875.53 1852.86 813.84L1507.61 71.67C1486.7 26.74 1441.79 0.21 1395.09 0.21C1377.68 0.21 1360.02 3.9 1343.27 11.69Z"></path><path id="Path 6" class="shp5" d="M791.17 305.67C729.48 334.37 702.49 408.32 731.19 470.01L939.68 918.19C968.37 979.88 1042.33 1006.87 1104.01 978.18C1165.7 949.48 1192.7 875.53 1164 813.84L955.5 365.65C934.6 320.72 889.68 294.19 842.98 294.19C825.58 294.19 807.92 297.88 791.17 305.67Z"></path><path id="Path 7" fill-rule="evenodd" class="shp6" d="M481.09 976.97C216.59 976.97 0 761.87 0 494.93C0 229.91 216.59 12.89 481.09 12.89C745.58 12.89 962.17 229.91 964.08 496.86C962.17 761.87 745.58 976.97 481.09 976.97ZM481.09 249.11C345 249.11 235.76 358.57 235.76 494.93C235.76 631.29 345 740.75 481.09 740.75C617.17 740.75 726.42 631.29 726.42 494.93C726.42 358.57 617.17 249.11 481.09 249.11Z"></path></g></svg>