<svg width="1602" height="437" viewBox="0 0 1602 437" fill="none" xmlns="http://www.w3.org/2000/svg">
<path d="M569.514 82.2962C580.396 58.9064 570.258 31.1247 546.871 20.2439C523.484 9.36309 495.703 19.5036 484.821 42.8933L354.451 323.111C343.569 346.5 353.707 374.282 377.094 385.163C400.481 396.044 428.262 385.903 439.144 362.513L569.514 82.2962Z" fill="url(#paint0_linear_1_3)"/>
<path opacity="0.3" d="M544.347 26.5955L543.631 26.2623C520.442 15.4735 492.897 25.5262 482.108 48.7156L354.282 323.466C343.493 346.655 353.546 374.2 376.735 384.989L377.451 385.322C400.641 396.111 428.186 386.058 438.974 362.869L566.801 88.1185C577.589 64.9291 567.537 37.3843 544.347 26.5955Z" fill="url(#paint1_linear_1_3)"/>
<path d="M806.98 20.267L806.971 20.2628C783.626 9.40178 755.897 19.5218 745.036 42.8664L614.89 322.603C604.029 345.948 614.149 373.677 637.494 384.538L637.503 384.542C660.847 395.403 688.576 385.283 699.437 361.939L829.584 82.2018C840.445 58.8572 830.325 31.128 806.98 20.267Z" fill="#3792F6"/>
<path opacity="0.45" d="M638.519 382.006L638.854 382.162C662.149 393 689.818 382.902 700.656 359.607L829.769 82.0917C840.607 58.7971 830.508 31.1274 807.214 20.2897L806.878 20.1337C783.584 9.29596 755.914 19.3942 745.076 42.6888L615.963 320.204C605.126 343.499 615.224 371.169 638.519 382.006Z" fill="url(#paint2_linear_1_3)"/>
<path d="M614.915 362.541C625.797 385.931 653.578 396.071 676.965 385.19C700.352 374.31 710.49 346.528 699.608 323.138L569.238 42.9208C558.356 19.5311 530.575 9.39062 507.188 20.2714C483.801 31.1522 473.663 58.934 484.545 82.3237L614.915 362.541Z" fill="url(#paint3_linear_1_3)"/>
<path d="M354.796 362.528C365.678 385.918 393.458 396.058 416.846 385.178C440.233 374.297 450.37 346.515 439.488 323.125L360.763 153.912C349.881 130.523 322.1 120.382 298.713 131.263C275.326 142.144 265.188 169.925 276.07 193.315L354.796 362.528Z" fill="url(#paint4_linear_1_3)"/>
<path d="M1118 198.4C1109.27 198.4 1102.28 191.12 1102.28 182.27V81.86C1102.28 73.02 1109.27 65.99 1118 65.99C1126.23 65.99 1133.22 73.01 1133.22 81.86V182.27C1133.22 191.11 1126.23 198.4 1118 198.4Z" fill="white"/>
<path d="M953.38 198.4C916.98 198.4 887.18 168.86 887.18 132.2C887.18 95.54 916.98 66 953.38 66C989.78 66 1019.58 95.8 1019.84 132.47C1019.58 168.87 989.77 198.41 953.38 198.41V198.4ZM953.38 98.44C934.65 98.44 919.62 113.47 919.62 132.2C919.62 150.93 934.65 165.96 953.38 165.96C972.11 165.96 987.14 150.93 987.14 132.2C987.14 113.47 972.11 98.44 953.38 98.44Z" fill="white"/>
<path d="M1057 198.4C1047.77 198.4 1040.38 191.01 1040.38 182.05V35.14C1040.38 26.17 1047.77 19.05 1057 19.05C1065.7 19.05 1073.09 26.17 1073.09 35.14V182.05C1073.09 191.02 1065.7 198.4 1057 198.4Z" fill="white"/>
<path d="M1198.13 115.45C1205.07 115.63 1213.87 115.72 1222.67 119.72C1237.34 126.39 1246.94 140.79 1246.94 156.26C1246.94 169.86 1240.01 182.67 1228.54 190.4C1219.47 196.27 1209.6 198.4 1199.47 198.4C1182.4 198.4 1165.33 191.47 1156.53 183.2C1150.13 177.33 1149.6 167.2 1155.73 160.79C1161.6 154.12 1171.73 153.86 1178.14 159.72C1182.94 164.26 1200.81 170.39 1210.95 163.72C1213.62 162.12 1215.22 159.18 1215.22 156.25C1215.22 152.52 1212.02 149.85 1209.35 148.78C1206.95 147.45 1202.68 147.45 1197.88 147.45C1191.48 147.45 1184.28 147.18 1176.81 144.52C1162.94 139.98 1151.74 125.58 1150.67 111.71C1149.34 94.91 1156.54 84.5 1162.67 78.63C1176.01 66.36 1195.48 64.49 1209.61 66.89C1220.28 68.76 1228.28 72.49 1234.95 78.63C1241.35 84.5 1241.88 94.63 1236.02 101.04C1232.55 104.78 1227.48 106.64 1222.42 106.11C1220.02 105.84 1217.62 105.04 1215.49 103.71C1211.76 101.04 1209.09 99.17 1204.29 98.38C1196.29 97.05 1181.35 97.58 1182.42 109.05C1182.42 109.05 1181.97 115.03 1198.16 115.45H1198.13Z" fill="white"/>
<path d="M1279.92 198.4C1271.19 198.4 1264.2 191.12 1264.2 182.27V81.86C1264.2 73.02 1271.19 65.99 1279.92 65.99C1288.15 65.99 1295.14 73.01 1295.14 81.86V182.27C1295.14 191.11 1288.15 198.4 1279.92 198.4Z" fill="white"/>
<path d="M1535.54 198.4C1499.14 198.4 1469.34 168.86 1469.34 132.2C1469.34 95.54 1499.14 66 1535.54 66C1571.94 66 1601.74 95.8 1602 132.47C1601.74 168.87 1571.93 198.41 1535.54 198.41V198.4ZM1535.54 98.44C1516.81 98.44 1501.78 113.47 1501.78 132.2C1501.78 150.93 1516.81 165.96 1535.54 165.96C1554.27 165.96 1569.3 150.93 1569.3 132.2C1569.3 113.47 1554.27 98.44 1535.54 98.44Z" fill="white"/>
<path d="M1133.22 252.43V353.45C1133.22 361.63 1126.63 368.48 1117.92 368.48C1109.21 368.48 1103.94 361.62 1103.94 353.45V350.28C1092.6 360.04 1079.41 365.84 1063.59 365.84C1028.25 365.84 999.76 337.36 999.76 302.28C999.76 267.2 1028.24 238.45 1063.59 238.45C1079.41 238.45 1092.6 244.52 1103.94 253.75V252.43C1103.94 244.25 1109.22 237.4 1117.92 237.4C1126.62 237.4 1133.22 244.26 1133.22 252.43ZM1096.56 302.28C1096.56 284.08 1081.53 269.31 1063.59 269.31C1045.65 269.31 1030.36 284.08 1030.36 302.28C1030.36 320.48 1045.39 334.98 1063.59 334.98C1081.79 334.98 1096.56 320.47 1096.56 302.28Z" fill="white"/>
<path d="M803.38 278.03C811.59 274.21 821.42 277.8 825.24 286.01L838 313.44L868.26 248.38C869.68 244.35 872.65 240.86 876.81 238.93C879 237.91 881.3 237.43 883.57 237.41C883.65 237.41 883.73 237.41 883.81 237.41C883.89 237.41 883.97 237.41 884.05 237.41C886.32 237.43 888.62 237.91 890.81 238.93C894.97 240.87 897.94 244.35 899.36 248.38L929.62 313.44L960.57 246.91C964.39 238.7 974.22 235.11 982.43 238.93C990.64 242.75 994.23 252.58 990.41 260.79L945.17 358.04C943.75 362.07 940.78 365.56 936.62 367.49C934.43 368.51 932.13 368.99 929.86 369.01C929.78 369.01 929.7 369.01 929.63 369.01C929.55 369.01 929.47 369.01 929.4 369.01C927.13 368.99 924.83 368.51 922.64 367.49C918.48 365.55 915.51 362.07 914.09 358.04L883.83 292.98L853.57 358.04C852.15 362.07 849.18 365.56 845.02 367.49C842.83 368.51 840.53 368.99 838.26 369.01C838.18 369.01 838.1 369.01 838.02 369.01C837.94 369.01 837.87 369.01 837.79 369.01C835.52 368.99 833.22 368.51 831.03 367.49C830.78 367.37 830.53 367.25 830.29 367.12C826.52 365.13 823.82 361.83 822.48 358.04L795.43 299.9C791.61 291.69 795.2 281.86 803.41 278.04L803.38 278.03Z" fill="white"/>
<path d="M1279.58 237.4C1271.4 237.4 1264.27 244.53 1264.27 253.23V300.99C1264.27 317.88 1251.38 330.84 1235.42 334.04C1220.24 336.16 1209.71 332.1 1209.21 331.9C1198.15 327.02 1190.24 314.94 1190.24 300.99V253.76C1190.24 245.32 1183.38 237.93 1174.94 237.93C1166.5 237.93 1159.63 245.32 1159.63 253.76V300.99C1159.63 331.57 1179.37 357.16 1205.77 364.06C1205.77 364.06 1205.77 364.06 1205.78 364.06C1209.17 364.95 1212.67 365.5 1216.26 365.74C1233 367.56 1245.3 364.82 1245.3 364.82V364.8C1252.15 363.47 1258.56 361 1264.27 357.71V368.53C1264.27 381.99 1256.78 393.77 1245.88 399.64C1240.79 402.72 1233.31 405.49 1222.88 405.24C1210.32 405.57 1202.13 401.38 1197.5 397.89C1194.83 396.12 1192.38 393.97 1190.23 391.48C1184.69 384.62 1174.93 383.83 1168.59 389.63C1162.26 395.43 1161.47 405.46 1167.01 412.06C1177.13 424.12 1190.77 431.96 1205.76 434.43C1220.11 437.77 1235.68 435.4 1242.27 434.09C1242.85 433.98 1243.42 433.86 1243.99 433.73C1244.96 433.52 1245.5 433.38 1245.5 433.38C1273.85 426.25 1295.13 399.79 1295.13 368.53V253.22C1295.13 244.51 1288.27 237.39 1279.56 237.39L1279.58 237.4Z" fill="white"/>
<path d="M1385.67 66C1367.04 66 1350.16 73.82 1338.1 86.32C1326.59 98.25 1319.47 114.43 1319.47 132.2V249.17C1319.47 258.14 1326.86 265.52 1336.09 265.52C1344.79 265.52 1352.18 258.13 1352.18 249.17V189.27C1362.02 195.06 1373.48 198.4 1385.68 198.4C1422.08 198.4 1451.88 168.86 1452.14 132.46C1451.88 95.8 1422.07 65.99 1385.68 65.99L1385.67 66ZM1385.39 165.96C1366.66 165.96 1351.63 150.93 1351.63 132.2C1351.63 113.47 1366.66 98.44 1385.39 98.44C1404.12 98.44 1419.15 113.47 1419.15 132.2C1419.15 150.93 1404.12 165.96 1385.39 165.96Z" fill="white"/>
<g style="mix-blend-mode:multiply">
<path d="M181.65 384.7C81.78 384.7 0 303.48 0 202.69C0 101.9 81.78 20.68 181.65 20.68C281.52 20.68 363.3 102.62 364.02 203.42C363.3 303.48 281.52 384.7 181.65 384.7ZM181.65 109.88C130.27 109.88 89.02 151.21 89.02 202.7C89.02 254.19 130.27 295.52 181.65 295.52C233.03 295.52 274.28 254.19 274.28 202.7C274.28 151.21 233.03 109.88 181.65 109.88Z" fill="#00C8F0"/>
</g>
<defs>
<linearGradient id="paint0_linear_1_3" x1="611.968" y1="116.164" x2="312.038" y2="289.334" gradientUnits="userSpaceOnUse">
<stop stop-color="#00C9F5"/>
<stop offset="1" stop-color="#00D296"/>
</linearGradient>
<linearGradient id="paint1_linear_1_3" x1="601.522" y1="122.987" x2="301.889" y2="295.07" gradientUnits="userSpaceOnUse">
<stop/>
<stop offset="1" stop-color="#0084FA" stop-opacity="0"/>
</linearGradient>
<linearGradient id="paint2_linear_1_3" x1="590.418" y1="336.253" x2="859.969" y2="65.7788" gradientUnits="userSpaceOnUse">
<stop/>
<stop offset="1" stop-color="#0084FA" stop-opacity="0"/>
</linearGradient>
<linearGradient id="paint3_linear_1_3" x1="442.091" y1="116.178" x2="742.021" y2="289.349" gradientUnits="userSpaceOnUse">
<stop stop-color="#0ADCFF"/>
<stop offset="0.08" stop-color="#0ED4FE"/>
<stop offset="0.47" stop-color="#24B2FC"/>
<stop offset="0.79" stop-color="#329DFA"/>
<stop offset="1" stop-color="#3796FA"/>
</linearGradient>
<linearGradient id="paint4_linear_1_3" x1="464.324" y1="319.699" x2="251.184" y2="196.649" gradientUnits="userSpaceOnUse">
<stop stop-color="#0ADCFF"/>
<stop offset="1" stop-color="#00B575"/>
</linearGradient>
</defs>
</svg>
